<svg width="800" height="800" viewBox="0 0 800 800" fill="none" xmlns="http://www.w3.org/2000/svg">
  <path fill="currentColor" fill-rule="evenodd" clip-rule="evenodd" d="M800 400C800 620.912 620.912 800 400 800C179.086 800 0 620.912 0 400C0 179.086 179.086 0 400 0C620.912 0 800 179.086 800 400ZM200.2 280C200.2 258 218 240 240 240H560C582 240 600 258 600 280V520C600 542 582 560 560 560H240C218 560 200 542 200 520L200.2 280ZM400 420L240 319.999V520H560V319.999L400 420ZM400 380L240 280H560L400 380Z"/>
</svg>
