<svg width="800" height="800" viewBox="0 0 800 800" fill="none" xmlns="http://www.w3.org/2000/svg">
  <circle fill="currentColor" cx="400" cy="400" r="400"/>
  <path stroke="black" stroke-width="30" d="M330 310L530 275M330 310V537.5M330 310V261.805C330 257.099 331.66 252.543 334.688 248.94C337.715 245.336 341.916 242.916 346.553 242.105L506.553 214.105C518.79 211.963 530 221.38 530 233.805V275M530 275V497.5M283.808 498.085L262.608 501.792C253.475 503.391 245.198 508.16 239.234 515.259C233.27 522.358 230 531.333 230 540.605C230 565.083 252.083 583.635 276.192 579.415L297.393 575.708C306.525 574.109 314.802 569.34 320.766 562.241C326.73 555.142 330 546.167 330 536.895C330 512.417 307.917 493.865 283.808 498.085ZM483.807 458.085L462.61 461.792C453.477 463.391 445.199 468.159 439.235 475.259C433.27 482.357 430 491.333 430 500.605C430 525.083 452.082 543.635 476.192 539.415L497.39 535.707C506.523 534.109 514.8 529.341 520.766 522.242C526.73 515.142 530 506.167 530 496.895C530 472.418 507.917 453.865 483.807 458.085Z"/>
</svg>
