<svg width="800" height="800" viewBox="0 0 800 800" fill="none" xmlns="http://www.w3.org/2000/svg">
  <circle fill="currentColor" cx="400" cy="400" r="400"/>
  <path fill="black" fill-rule="evenodd" clip-rule="evenodd" d="M291.333 200C261.326 200 237 224.36 237 254.409V544.591C237 574.641 261.326 599 291.333 599H508.667C538.675 599 563 574.641 563 544.591V341.979C563 327.549 557.275 313.71 547.086 303.506L459.638 215.936C449.449 205.732 435.628 200 421.219 200H291.333ZM273.222 254.409C273.222 244.393 281.331 236.273 291.333 236.273H400V326.955C400 346.987 416.217 363.227 436.222 363.227H526.778V544.591C526.778 554.608 518.669 562.727 508.667 562.727H291.333C281.331 562.727 273.222 554.608 273.222 544.591V254.409ZM519.276 326.955L436.222 243.785V326.955H519.276Z"/>
</svg>
